{"title":"Dr.Strangelove.Or.How.I.Learned.To.Stop.Worrying.And.Love.The.Bo","uid":5944750,"size":910539408,"categoryP":"video","categoryS":"movies","magnet":"?xt=urn:btih:2c1714af9c6c8e2edcf7a19966bcd30d025d653f&amp;dn=Dr.Strangelove.Or.How.I.Learned.To.Stop.Worrying.And.Love.The.Bo&amp;tr=udp%3A%2F%2Ftracker.openbittorrent.com%3A80&amp;tr=udp%3A%2F%2Fopen.demonii.com%3A1337&amp;tr=udp%3A%2F%2Ftracker.coppersurfer.tk%3A6969&amp;tr=udp%3A%2F%2Fexodus.desync.com%3A6969","seeders":1,"leechers":0,"uploader":"Lindoff41","files":1,"time":1289261411,"description":"r. Strangelove eller: Hur jag slutade ÃƒÂ¤ngslas och lÃƒÂ¤rde mig ÃƒÂ¤lska bomben\n\t\n\t\nOriginaltitel:\tDr. Strangelove or: How I Learned to Stop Worrying and Love the Bomb \t\nRegissÃƒÂ¶r:\tStanley Kubrick\nUtgivningsÃƒÂ¥r:\t1964\nLÃƒÂ¤ngd:\t93 min\n\n\t\t\nOm Dr. Strangelove eller: Hur jag slutade ÃƒÂ¤ngslas och lÃƒÂ¤rde mig ÃƒÂ¤lska bomben:\n\nDen paranoide amerikanske generalen Jack D Ripper ÃƒÂ¤r besatt av tanken pÃƒÂ¥ att ryssarna konspirerar fÃƒÂ¶r att fÃƒÂ¶rorena de &quot;vÃƒÂ¤rdefulla amerikanska kroppsvÃƒÂ¤tskorna&quot;. I ett anfall av vansinne skickar han dÃƒÂ¤rfÃƒÂ¶r ut det amerikanska flygvapnet fÃƒÂ¶r att bomba Sovjetunionen sÃƒÂ¶nder och samman. Eller som han sjÃƒÂ¤lv uttrycker det &quot;Nuclear combat!&quot;. Stanley Kubricks klassiska politiska satir frÃƒÂ¥n det kalla krigets dagar.\n\n\nSkÃƒÂ¥despelare:\n\tPeter Sellers, George C Scott, Sterling Hayden, Keenan Wynn, Slim Pickens, Peter Bull, James Earl Jones, Tracy Reed (II), Jack Creley\nManus:\n\tStanley Kubrick, Terry Southern, Peter George (I)\nGenre:\n\tDrama, Komedi\nProduktionsland:\n\tStorbritannien\n\n\nFormat                           : AVI\nFormat/Info                      : Audio Video Interleave\nFile size                        : 868 MiB\nDuration                         : 1h 30mn\nOverall bit rate                 : 1 341 Kbps\nWriting application              : Lavf52.31.0\n\nVideo\nID                               : 0\nFormat                           : MPEG-4 Visual\nFormat profile                   : Simple@L1\nFormat settings, BVOP            : No\nFormat settings, QPel            : No\nFormat settings, GMC             : No warppoints\nFormat settings, Matrix          : Default (H.263)\nCodec ID                         : FMP4\nDuration                         : 1h 30mn\nBit rate                         : 1 200 Kbps\nWidth                            : 720 pixels\nHeight                           : 576 pixels\nDisplay aspect ratio             : 4:3\nFrame rate                       : 25.000 fps\nStandard                         : PAL\nColor space                      : YUV\nChroma subsampling               : 4:2:0\nBit depth                        : 8 bits\nScan type                        : Progressive\nBits/(Pixel*Frame)               : 0.116\nStream size                      : 777 MiB (89%)\nWriting library                  : Lavc52.20.0\n\nAudio\nID                               : 1\nFormat                           : MPEG Audio\nFormat version                   : Version 1\nFormat profile                   : Layer 3\nMode                             : Joint stereo\nMode extension                   : MS Stereo\nCodec ID                         : 55\nCodec ID/Hint                    : MP3\nDuration                         : 1h 30mn\nBit rate mode                    : Constant\nBit rate                         : 128 Kbps\nChannel(s)                       : 2 channels\nSampling rate                    : 48.0 KHz\nStream size                      : 82.9 MiB (10%)\nAlignment                        : Aligned on interleaves\nInterleave, duration             : 24 ms (0.60 video frame)\nWriting library                  : LAME3.97\n\n\n\n\n","torrent":{"xt":"urn:btih:2c1714af9c6c8e2edcf7a19966bcd30d025d653f","amp;dn":"Dr.Strangelove.Or.How.I.Learned.To.Stop.Worrying.And.Love.The.Bo","amp;tr":["udp%3A%2F%2Ftracker.openbittorrent.com%3A80","udp%3A%2F%2Fopen.demonii.com%3A1337","udp%3A%2F%2Ftracker.coppersurfer.tk%3A6969","udp%3A%2F%2Fexodus.desync.com%3A6969"],"infoHash":"2c1714af9c6c8e2edcf7a19966bcd30d025d653f","infoHashBuffer":{"type":"Buffer","data":[44,23,20,175,156,108,142,46,220,247,161,153,102,188,211,13,2,93,101,63]},"announce":[],"urlList":[]}}